<?xml version="1.0" standalone="no"?>
<!DOCTYPE svg PUBLIC "-//W3C//DTD SVG 20010904//EN"
 "http://www.w3.org/TR/2001/REC-SVG-20010904/DTD/svg10.dtd">
<svg version="1.0" xmlns="http://www.w3.org/2000/svg"
 width="80.000000pt" height="80.000000pt" viewBox="0 0 80.000000 80.000000"
 preserveAspectRatio="xMidYMid meet">
<metadata>
Created by potrace 1.11, written by Peter Selinger 2001-2013
</metadata>
<g transform="translate(0.000000,80.000000) scale(0.100000,-0.100000)"
fill="#000000" stroke="none">
<path d="M283 761 c-80 -30 -111 -51 -106 -72 8 -28 -16 -51 -44 -45 -18 5
-27 -1 -47 -31 -32 -48 -61 -135 -65 -190 -3 -55 16 -148 41 -197 33 -64 106
-134 177 -169 60 -29 74 -32 161 -32 82 0 103 4 152 27 32 15 80 48 108 74 40
37 49 51 44 70 -5 19 -1 26 20 35 38 18 60 100 53 196 -10 137 -87 252 -211
315 -79 40 -204 49 -283 19z"/>
</g>
</svg>
